<?plantuml 1.2026.0?><svg xmlns="http://www.w3.org/2000/svg" xmlns:xlink="http://www.w3.org/1999/xlink" contentStyleType="text/css" data-diagram-type="DESCRIPTION" height="954px" preserveAspectRatio="none" style="width:1763px;height:954px;background:#FFFFFF;" version="1.1" viewBox="0 0 1763 954" width="1763px" zoomAndPan="magnify"><title>Yandex Go Deployment Diagram (Physical View)</title><defs/><g><g class="title" data-source-line="24"><text fill="#000000" font-family="Verdana" font-size="22" font-weight="bold" lengthAdjust="spacing" textLength="599.8438" x="577.4279" y="35.4209">Yandex Go Deployment Diagram (Physical View)</text></g><!--cluster SmartPhone--><g class="cluster" data-qualified-name="SmartPhone" data-source-line="27" id="ent0002"><polygon fill="#F5F5F5" points="626.7915,123.4594,636.7915,113.4594,856.7915,113.4594,856.7915,238.0594,846.7915,248.0594,626.7915,248.0594,626.7915,123.4594" style="stroke:#00008B;stroke-width:1;"/><line style="stroke:#00008B;stroke-width:1;" x1="846.7915" x2="856.7915" y1="123.4594" y2="113.4594"/><line style="stroke:#00008B;stroke-width:1;" x1="626.7915" x2="846.7915" y1="123.4594" y2="123.4594"/><line style="stroke:#00008B;stroke-width:1;" x1="846.7915" x2="846.7915" y1="123.4594" y2="248.0594"/><text fill="#000000" font-family="Verdana" font-size="14" font-style="italic" lengthAdjust="spacing" textLength="63.1162" x="706.2334" y="139.4545">&#171;device&#187;</text><text fill="#000000" font-family="Verdana" font-size="14" font-weight="bold" lengthAdjust="spacing" textLength="137.7578" x="668.9126" y="155.7514">User Smartphone</text></g><!--cluster Computer--><g class="cluster" data-qualified-name="Computer" data-source-line="31" id="ent0004"><polygon fill="#F5F5F5" points="880.7915,67.6094,890.7915,57.6094,1183.7915,57.6094,1183.7915,253.9094,1173.7915,263.9094,880.7915,263.9094,880.7915,67.6094" style="stroke:#00008B;stroke-width:1;"/><line style="stroke:#00008B;stroke-width:1;" x1="1173.7915" x2="1183.7915" y1="67.6094" y2="57.6094"/><line style="stroke:#00008B;stroke-width:1;" x1="880.7915" x2="1173.7915" y1="67.6094" y2="67.6094"/><line style="stroke:#00008B;stroke-width:1;" x1="1173.7915" x2="1173.7915" y1="67.6094" y2="263.9094"/><text fill="#000000" font-family="Verdana" font-size="14" font-style="italic" lengthAdjust="spacing" textLength="63.1162" x="996.7334" y="83.6045">&#171;device&#187;</text><text fill="#000000" font-family="Verdana" font-size="14" font-weight="bold" lengthAdjust="spacing" textLength="118.5352" x="969.0239" y="99.9014">User Computer</text></g><!--cluster Web Browser--><g class="cluster" data-qualified-name="Computer.Web Browser" data-source-line="32" id="ent0005"><polygon fill="#F5F5F5" points="904.7915,131.6094,914.7915,121.6094,1159.7915,121.6094,1159.7915,229.9094,1149.7915,239.9094,904.7915,239.9094,904.7915,131.6094" style="stroke:#00008B;stroke-width:1;"/><line style="stroke:#00008B;stroke-width:1;" x1="1149.7915" x2="1159.7915" y1="131.6094" y2="121.6094"/><line style="stroke:#00008B;stroke-width:1;" x1="904.7915" x2="1149.7915" y1="131.6094" y2="131.6094"/><line style="stroke:#00008B;stroke-width:1;" x1="1149.7915" x2="1149.7915" y1="131.6094" y2="239.9094"/><text fill="#000000" font-family="Verdana" font-size="14" font-style="italic" lengthAdjust="spacing" textLength="179.9492" x="938.3169" y="147.6045">&#171;execution environment&#187;</text><text fill="#000000" font-family="Verdana" font-size="14" font-weight="bold" lengthAdjust="spacing" textLength="104.6924" x="975.9453" y="163.9014">Web Browser</text></g><!--cluster Yandex Cloud Infrastructure--><g class="cluster" data-qualified-name="Yandex Cloud Infrastructure" data-source-line="38" id="ent0007"><path d="M95.3977,330.4654 C132.4785,283.865 166.5968,282.568 196.7718,337.3694 C226.8984,285.6629 262.0854,267.4307 309.4672,318.4373 C352.8578,253.6925 403.5992,265.922 436.7771,328.6378 C471.9769,280.9895 515.5715,281.7583 549.0511,330.6386 C575.3595,274.0435 623.474,279.9214 658.0049,321.5147 C693.8069,267.1766 737.1162,252.5538 779.2285,314.9625 C812.1022,261.4161 864.6708,273.5861 890.2675,322.824 C911.0712,272.6727 959.0328,267.5856 989.7307,312.4686 C1036.7665,255.1095 1080.0857,267.9037 1109.0237,330.4708 C1146.4097,274.8274 1191.8762,269.6117 1229.2229,330.5114 C1263.8535,282.1913 1307.278,268.7161 1343.4164,328.925 C1369.0112,279.1709 1416.1164,279.8167 1442.1857,328.4488 C1484.6017,277.309 1521.7473,265.8567 1561.4424,331.2336 C1596.3216,271.618 1637.6361,274.8243 1675.7915,327.9094 C1685.1061,325.974 1688.6233,330.3814 1685.9908,339.2196 C1743.836,367.9584 1747.2925,424.4805 1699.8961,464.8663 C1750.2223,507.7971 1756.1733,564.2726 1688.9274,597.4787 C1756.6996,639.8255 1750.944,700.2401 1685.3726,739.2433 C1740.4752,781.1209 1732.9436,838.6707 1668.7915,864.7994 C1676.0188,866.6028 1675.8895,871.2195 1672.3325,876.3337 C1647.4179,919.4433 1607.3559,922.3414 1575.4445,884.732 C1537.8205,939.2962 1478.3338,931.727 1456.1603,869.0166 C1414.4514,933.2806 1373.8141,923.7721 1330.252,871.0105 C1303.0461,917.3195 1254.7326,918.3498 1227.4939,871.0466 C1200.1456,938.4086 1154.3898,931.8322 1112.3498,885.9901 C1080.9367,936.5023 1029.1591,931.5193 998.1873,885.4684 C966.5933,936.089 914.0154,923.4352 890.1436,876.8824 C859.8898,940.2867 819.6837,943.2125 779.5712,885.9137 C734.7512,936.4422 689.0046,947.2898 650.8009,878.7577 C621.809,925.0489 571.1887,933.0942 544.1784,876.7 C511.0165,933.5809 468.3228,941.0089 431.1965,880.5161 C398.0665,939.1531 346.6082,933.6746 317.9842,876.1255 C279.8298,926.1822 235.0082,927.8243 200.0171,872.5816 C159.5818,930.9468 100.5166,916.5056 73.7915,857.7994 C82.8989,857.4871 85.1457,864.7213 81.1673,871.4695 C14.6169,827.0775 14.0151,773.1284 83.3632,730.8588 C30.8434,692.6579 35.5677,640.9905 87.1615,605.9557 C30.9396,567.429 25.6216,499.0659 90.8104,463.6524 C26.7008,419.9243 11,374.0358 80.7915,320.9094 C88.9576,317.0746 95.4543,321.732 95.3977,330.4654" fill="#E0FFFF" style="stroke:#008B8B;stroke-width:1;"/><text fill="#000000" font-family="Verdana" font-size="14" font-weight="bold" lengthAdjust="spacing" textLength="223.3984" x="763.0923" y="338.9045">Yandex Cloud Infrastructure</text></g><!--cluster LB--><g class="cluster" data-qualified-name="Yandex Cloud Infrastructure.LB" data-source-line="40" id="ent0008"><polygon fill="#F5F5F5" points="794.7915,365.9094,804.7915,355.9094,981.7915,355.9094,981.7915,448.2094,971.7915,458.2094,794.7915,458.2094,794.7915,365.9094" style="stroke:#00008B;stroke-width:1;"/><line style="stroke:#00008B;stroke-width:1;" x1="971.7915" x2="981.7915" y1="365.9094" y2="355.9094"/><line style="stroke:#00008B;stroke-width:1;" x1="794.7915" x2="971.7915" y1="365.9094" y2="365.9094"/><line style="stroke:#00008B;stroke-width:1;" x1="971.7915" x2="971.7915" y1="365.9094" y2="458.2094"/><text fill="#000000" font-family="Verdana" font-size="14" font-weight="bold" lengthAdjust="spacing" textLength="111.9111" x="828.3359" y="381.9045">Load Balancer</text></g><!--cluster K8s--><g class="cluster" data-qualified-name="Yandex Cloud Infrastructure.K8s" data-source-line="45" id="ent0010"><polygon fill="#F5F5F5" points="302.7915,517.2094,312.7915,507.2094,1529.7915,507.2094,1529.7915,671.4994,1519.7915,681.4994,302.7915,681.4994,302.7915,517.2094" style="stroke:#00008B;stroke-width:1;"/><line style="stroke:#00008B;stroke-width:1;" x1="1519.7915" x2="1529.7915" y1="517.2094" y2="507.2094"/><line style="stroke:#00008B;stroke-width:1;" x1="302.7915" x2="1519.7915" y1="517.2094" y2="517.2094"/><line style="stroke:#00008B;stroke-width:1;" x1="1519.7915" x2="1519.7915" y1="517.2094" y2="681.4994"/><text fill="#000000" font-family="Verdana" font-size="14" font-weight="bold" lengthAdjust="spacing" textLength="295.1484" x="764.7173" y="533.2045">Kubernetes Cluster (Application Tier)</text></g><!--cluster Pod--><g class="cluster" data-qualified-name="Yandex Cloud Infrastructure.K8s.Pod" data-source-line="46" id="ent0011"><polygon fill="#F5F5F5" points="326.7915,565.2094,336.7915,555.2094,1505.7915,555.2094,1505.7915,647.4994,1495.7915,657.4994,326.7915,657.4994,326.7915,565.2094" style="stroke:#00008B;stroke-width:1;"/><line style="stroke:#00008B;stroke-width:1;" x1="1495.7915" x2="1505.7915" y1="565.2094" y2="555.2094"/><line style="stroke:#00008B;stroke-width:1;" x1="326.7915" x2="1495.7915" y1="565.2094" y2="565.2094"/><line style="stroke:#00008B;stroke-width:1;" x1="1495.7915" x2="1495.7915" y1="565.2094" y2="657.4994"/><text fill="#000000" font-family="Verdana" font-size="14" font-weight="bold" lengthAdjust="spacing" textLength="29.9004" x="897.3413" y="581.2045">Pod</text></g><!--cluster BrokerNode--><g class="cluster" data-qualified-name="Yandex Cloud Infrastructure.BrokerNode" data-source-line="57" id="ent0018"><polygon fill="#F5F5F5" points="482.7915,756.4994,492.7915,746.4994,746.7915,746.4994,746.7915,838.7994,736.7915,848.7994,482.7915,848.7994,482.7915,756.4994" style="stroke:#00008B;stroke-width:1;"/><line style="stroke:#00008B;stroke-width:1;" x1="736.7915" x2="746.7915" y1="756.4994" y2="746.4994"/><line style="stroke:#00008B;stroke-width:1;" x1="482.7915" x2="736.7915" y1="756.4994" y2="756.4994"/><line style="stroke:#00008B;stroke-width:1;" x1="736.7915" x2="736.7915" y1="756.4994" y2="848.7994"/><text fill="#000000" font-family="Verdana" font-size="14" font-weight="bold" lengthAdjust="spacing" textLength="188.1729" x="516.7051" y="772.4945">Message Broker Cluster</text></g><!--cluster RedisNode--><g class="cluster" data-qualified-name="Yandex Cloud Infrastructure.RedisNode" data-source-line="61" id="ent0020"><polygon fill="#F5F5F5" points="278.7915,756.4994,288.7915,746.4994,458.7915,746.4994,458.7915,838.7994,448.7915,848.7994,278.7915,848.7994,278.7915,756.4994" style="stroke:#00008B;stroke-width:1;"/><line style="stroke:#00008B;stroke-width:1;" x1="448.7915" x2="458.7915" y1="756.4994" y2="746.4994"/><line style="stroke:#00008B;stroke-width:1;" x1="278.7915" x2="448.7915" y1="756.4994" y2="756.4994"/><line style="stroke:#00008B;stroke-width:1;" x1="448.7915" x2="448.7915" y1="756.4994" y2="848.7994"/><text fill="#000000" font-family="Verdana" font-size="14" font-weight="bold" lengthAdjust="spacing" textLength="104.7676" x="312.4077" y="772.4945">Redis Cluster</text></g><!--cluster DBServer--><g class="cluster" data-qualified-name="Yandex Cloud Infrastructure.DBServer" data-source-line="65" id="ent0022"><polygon fill="#F5F5F5" points="778.7915,756.4994,788.7915,746.4994,1207.7915,746.4994,1207.7915,838.7994,1197.7915,848.7994,778.7915,848.7994,778.7915,756.4994" style="stroke:#00008B;stroke-width:1;"/><line style="stroke:#00008B;stroke-width:1;" x1="1197.7915" x2="1207.7915" y1="756.4994" y2="746.4994"/><line style="stroke:#00008B;stroke-width:1;" x1="778.7915" x2="1197.7915" y1="756.4994" y2="756.4994"/><line style="stroke:#00008B;stroke-width:1;" x1="1197.7915" x2="1197.7915" y1="756.4994" y2="848.7994"/><text fill="#000000" font-family="Verdana" font-size="14" font-weight="bold" lengthAdjust="spacing" textLength="165.6826" x="906.4502" y="772.4945">Data Storage Cluster</text></g><!--cluster Kubernetes Cluster (External Services)--><g class="cluster" data-qualified-name="Yandex Cloud Infrastructure.Kubernetes Cluster .External Services." data-source-line="70" id="ent0025"><polygon fill="#F5F5F5" points="1276.7915,740.4994,1286.7915,730.4994,1659.7915,730.4994,1659.7915,838.7994,1649.7915,848.7994,1276.7915,848.7994,1276.7915,740.4994" style="stroke:#00008B;stroke-width:1;"/><line style="stroke:#00008B;stroke-width:1;" x1="1649.7915" x2="1659.7915" y1="740.4994" y2="730.4994"/><line style="stroke:#00008B;stroke-width:1;" x1="1276.7915" x2="1649.7915" y1="740.4994" y2="740.4994"/><line style="stroke:#00008B;stroke-width:1;" x1="1649.7915" x2="1649.7915" y1="740.4994" y2="848.7994"/><text fill="#000000" font-family="Verdana" font-size="14" font-style="italic" lengthAdjust="spacing" textLength="75.2295" x="1426.6768" y="756.4945">&#171;external&#187;</text><text fill="#000000" font-family="Verdana" font-size="14" font-weight="bold" lengthAdjust="spacing" textLength="307.5352" x="1310.5239" y="772.7914">Kubernetes Cluster (External Services)</text></g><!--entity mobile_app--><g class="entity" data-qualified-name="SmartPhone.mobile_app" data-source-line="28" id="ent0003"><rect fill="#FFFFFF" height="62.5938" rx="2.5" ry="2.5" style="stroke:#000000;stroke-width:1;" width="197.8281" x="642.8815" y="169.4594"/><rect fill="#FFFFFF" height="10" style="stroke:#000000;stroke-width:1;" width="15" x="820.7096" y="174.4594"/><rect fill="#FFFFFF" height="2" style="stroke:#000000;stroke-width:1;" width="4" x="818.7096" y="176.4594"/><rect fill="#FFFFFF" height="2" style="stroke:#000000;stroke-width:1;" width="4" x="818.7096" y="180.4594"/><text fill="#000000" font-family="Verdana" font-size="14" lengthAdjust="spacing" textLength="157.8281" x="657.8815" y="202.4545">Yandex Go Mobile App</text><text fill="#000000" font-family="Verdana" font-size="14" lengthAdjust="spacing" textLength="93.8711" x="657.8815" y="218.7514">(iOS/Android)</text></g><!--entity web_app--><g class="entity" data-qualified-name="Computer.Web Browser.web_app" data-source-line="33" id="ent0006"><rect fill="#FFFFFF" height="46.2969" rx="2.5" ry="2.5" style="stroke:#000000;stroke-width:1;" width="183.2471" x="921.1715" y="177.6094"/><rect fill="#FFFFFF" height="10" style="stroke:#000000;stroke-width:1;" width="15" x="1084.4186" y="182.6094"/><rect fill="#FFFFFF" height="2" style="stroke:#000000;stroke-width:1;" width="4" x="1082.4186" y="184.6094"/><rect fill="#FFFFFF" height="2" style="stroke:#000000;stroke-width:1;" width="4" x="1082.4186" y="188.6094"/><text fill="#000000" font-family="Verdana" font-size="14" lengthAdjust="spacing" textLength="143.2471" x="936.1715" y="210.6045">Yandex Go Web App</text></g><!--entity api_gateway--><g class="entity" data-qualified-name="Yandex Cloud Infrastructure.LB.api_gateway" data-source-line="41" id="ent0009"><rect fill="#FFFFFF" height="46.2969" rx="2.5" ry="2.5" style="stroke:#000000;stroke-width:1;" width="128.4434" x="823.5715" y="395.9094"/><rect fill="#FFFFFF" height="10" style="stroke:#000000;stroke-width:1;" width="15" x="932.0149" y="400.9094"/><rect fill="#FFFFFF" height="2" style="stroke:#000000;stroke-width:1;" width="4" x="930.0149" y="402.9094"/><rect fill="#FFFFFF" height="2" style="stroke:#000000;stroke-width:1;" width="4" x="930.0149" y="406.9094"/><text fill="#000000" font-family="Verdana" font-size="14" lengthAdjust="spacing" textLength="88.4434" x="838.5715" y="428.9045">API Gateway</text></g><!--entity user_service--><g class="entity" data-qualified-name="Yandex Cloud Infrastructure.K8s.Pod.user_service" data-source-line="47" id="ent0012"><rect fill="#FFFFFF" height="46.2969" rx="2.5" ry="2.5" style="stroke:#000000;stroke-width:1;" width="128.1016" x="553.7415" y="595.2094"/><rect fill="#FFFFFF" height="10" style="stroke:#000000;stroke-width:1;" width="15" x="661.8431" y="600.2094"/><rect fill="#FFFFFF" height="2" style="stroke:#000000;stroke-width:1;" width="4" x="659.8431" y="602.2094"/><rect fill="#FFFFFF" height="2" style="stroke:#000000;stroke-width:1;" width="4" x="659.8431" y="606.2094"/><text fill="#000000" font-family="Verdana" font-size="14" lengthAdjust="spacing" textLength="88.1016" x="568.7415" y="628.2045">User Service</text></g><!--entity payment_service--><g class="entity" data-qualified-name="Yandex Cloud Infrastructure.K8s.Pod.payment_service" data-source-line="48" id="ent0013"><rect fill="#FFFFFF" height="46.2969" rx="2.5" ry="2.5" style="stroke:#000000;stroke-width:1;" width="158.1113" x="1088.7315" y="595.2094"/><rect fill="#FFFFFF" height="10" style="stroke:#000000;stroke-width:1;" width="15" x="1226.8428" y="600.2094"/><rect fill="#FFFFFF" height="2" style="stroke:#000000;stroke-width:1;" width="4" x="1224.8428" y="602.2094"/><rect fill="#FFFFFF" height="2" style="stroke:#000000;stroke-width:1;" width="4" x="1224.8428" y="606.2094"/><text fill="#000000" font-family="Verdana" font-size="14" lengthAdjust="spacing" textLength="118.1113" x="1103.7315" y="628.2045">Payment Service</text></g><!--entity dispatch_service--><g class="entity" data-qualified-name="Yandex Cloud Infrastructure.K8s.Pod.dispatch_service" data-source-line="49" id="ent0014"><rect fill="#FFFFFF" height="46.2969" rx="2.5" ry="2.5" style="stroke:#000000;stroke-width:1;" width="157.6807" x="716.9515" y="595.2094"/><rect fill="#FFFFFF" height="10" style="stroke:#000000;stroke-width:1;" width="15" x="854.6322" y="600.2094"/><rect fill="#FFFFFF" height="2" style="stroke:#000000;stroke-width:1;" width="4" x="852.6322" y="602.2094"/><rect fill="#FFFFFF" height="2" style="stroke:#000000;stroke-width:1;" width="4" x="852.6322" y="606.2094"/><text fill="#000000" font-family="Verdana" font-size="14" lengthAdjust="spacing" textLength="117.6807" x="731.9515" y="628.2045">Dispatch Service</text></g><!--entity pricing_service--><g class="entity" data-qualified-name="Yandex Cloud Infrastructure.K8s.Pod.pricing_service" data-source-line="50" id="ent0015"><rect fill="#FFFFFF" height="46.2969" rx="2.5" ry="2.5" style="stroke:#000000;stroke-width:1;" width="143.626" x="909.9815" y="595.2094"/><rect fill="#FFFFFF" height="10" style="stroke:#000000;stroke-width:1;" width="15" x="1033.6075" y="600.2094"/><rect fill="#FFFFFF" height="2" style="stroke:#000000;stroke-width:1;" width="4" x="1031.6075" y="602.2094"/><rect fill="#FFFFFF" height="2" style="stroke:#000000;stroke-width:1;" width="4" x="1031.6075" y="606.2094"/><text fill="#000000" font-family="Verdana" font-size="14" lengthAdjust="spacing" textLength="103.626" x="924.9815" y="628.2045">Pricing Service</text></g><!--entity maps_service--><g class="entity" data-qualified-name="Yandex Cloud Infrastructure.K8s.Pod.maps_service" data-source-line="51" id="ent0016"><rect fill="#FFFFFF" height="46.2969" rx="2.5" ry="2.5" style="stroke:#000000;stroke-width:1;" width="207.1523" x="1282.2115" y="595.2094"/><rect fill="#FFFFFF" height="10" style="stroke:#000000;stroke-width:1;" width="15" x="1469.3639" y="600.2094"/><rect fill="#FFFFFF" height="2" style="stroke:#000000;stroke-width:1;" width="4" x="1467.3639" y="602.2094"/><rect fill="#FFFFFF" height="2" style="stroke:#000000;stroke-width:1;" width="4" x="1467.3639" y="606.2094"/><text fill="#000000" font-family="Verdana" font-size="14" lengthAdjust="spacing" textLength="167.1523" x="1297.2115" y="628.2045">Maps &amp; Routing Service</text></g><!--entity notification_service--><g class="entity" data-qualified-name="Yandex Cloud Infrastructure.K8s.Pod.notification_service" data-source-line="52" id="ent0017"><rect fill="#FFFFFF" height="46.2969" rx="2.5" ry="2.5" style="stroke:#000000;stroke-width:1;" width="176.5205" x="342.5315" y="595.2094"/><rect fill="#FFFFFF" height="10" style="stroke:#000000;stroke-width:1;" width="15" x="499.052" y="600.2094"/><rect fill="#FFFFFF" height="2" style="stroke:#000000;stroke-width:1;" width="4" x="497.052" y="602.2094"/><rect fill="#FFFFFF" height="2" style="stroke:#000000;stroke-width:1;" width="4" x="497.052" y="606.2094"/><text fill="#000000" font-family="Verdana" font-size="14" lengthAdjust="spacing" textLength="136.5205" x="357.5315" y="628.2045">Notification Service</text></g><!--entity kafka--><g class="entity" data-qualified-name="Yandex Cloud Infrastructure.BrokerNode.kafka" data-source-line="58" id="ent0019"><rect fill="#FFFFFF" height="46.2969" rx="2.5" ry="2.5" style="stroke:#000000;stroke-width:1;" width="79.375" x="499.1015" y="786.4994"/><rect fill="#FFFFFF" height="10" style="stroke:#000000;stroke-width:1;" width="15" x="558.4765" y="791.4994"/><rect fill="#FFFFFF" height="2" style="stroke:#000000;stroke-width:1;" width="4" x="556.4765" y="793.4994"/><rect fill="#FFFFFF" height="2" style="stroke:#000000;stroke-width:1;" width="4" x="556.4765" y="797.4994"/><text fill="#000000" font-family="Verdana" font-size="14" lengthAdjust="spacing" textLength="39.375" x="514.1015" y="819.4945">Kafka</text></g><!--entity redis--><g class="entity" data-qualified-name="Yandex Cloud Infrastructure.RedisNode.redis" data-source-line="62" id="ent0021"><rect fill="#FFFFFF" height="46.2969" rx="2.5" ry="2.5" style="stroke:#000000;stroke-width:1;" width="126.3994" x="316.5915" y="786.4994"/><rect fill="#FFFFFF" height="10" style="stroke:#000000;stroke-width:1;" width="15" x="422.9909" y="791.4994"/><rect fill="#FFFFFF" height="2" style="stroke:#000000;stroke-width:1;" width="4" x="420.9909" y="793.4994"/><rect fill="#FFFFFF" height="2" style="stroke:#000000;stroke-width:1;" width="4" x="420.9909" y="797.4994"/><text fill="#000000" font-family="Verdana" font-size="14" lengthAdjust="spacing" textLength="86.3994" x="331.5915" y="819.4945">Redis Cache</text></g><!--entity ydb--><g class="entity" data-qualified-name="Yandex Cloud Infrastructure.DBServer.ydb" data-source-line="66" id="ent0023"><rect fill="#FFFFFF" height="46.2969" rx="2.5" ry="2.5" style="stroke:#000000;stroke-width:1;" width="166.4512" x="1025.5615" y="786.4994"/><rect fill="#FFFFFF" height="10" style="stroke:#000000;stroke-width:1;" width="15" x="1172.0127" y="791.4994"/><rect fill="#FFFFFF" height="2" style="stroke:#000000;stroke-width:1;" width="4" x="1170.0127" y="793.4994"/><rect fill="#FFFFFF" height="2" style="stroke:#000000;stroke-width:1;" width="4" x="1170.0127" y="797.4994"/><text fill="#000000" font-family="Verdana" font-size="14" lengthAdjust="spacing" textLength="126.4512" x="1040.5615" y="819.4945">YDB (Operational)</text></g><!--entity clickhouse--><g class="entity" data-qualified-name="Yandex Cloud Infrastructure.DBServer.clickhouse" data-source-line="67" id="ent0024"><rect fill="#FFFFFF" height="46.2969" rx="2.5" ry="2.5" style="stroke:#000000;stroke-width:1;" width="196.1807" x="794.7015" y="786.4994"/><rect fill="#FFFFFF" height="10" style="stroke:#000000;stroke-width:1;" width="15" x="970.8822" y="791.4994"/><rect fill="#FFFFFF" height="2" style="stroke:#000000;stroke-width:1;" width="4" x="968.8822" y="793.4994"/><rect fill="#FFFFFF" height="2" style="stroke:#000000;stroke-width:1;" width="4" x="968.8822" y="797.4994"/><text fill="#000000" font-family="Verdana" font-size="14" lengthAdjust="spacing" textLength="156.1807" x="809.7015" y="819.4945">ClickHouse (Analytics)</text></g><!--entity yandex_pay--><g class="entity" data-qualified-name="Yandex Cloud Infrastructure.Kubernetes Cluster .External Services..yandex_pay" data-source-line="71" id="ent0026"><rect fill="#FFFFFF" height="46.2969" rx="2.5" ry="2.5" style="stroke:#000000;stroke-width:1;" width="148.1445" x="1300.7215" y="786.4994"/><rect fill="#FFFFFF" height="10" style="stroke:#000000;stroke-width:1;" width="15" x="1428.866" y="791.4994"/><rect fill="#FFFFFF" height="2" style="stroke:#000000;stroke-width:1;" width="4" x="1426.866" y="793.4994"/><rect fill="#FFFFFF" height="2" style="stroke:#000000;stroke-width:1;" width="4" x="1426.866" y="797.4994"/><text fill="#000000" font-family="Verdana" font-size="14" lengthAdjust="spacing" textLength="108.1445" x="1315.7215" y="819.4945">Yandex Pay API</text></g><!--entity global_maps--><g class="entity" data-qualified-name="Yandex Cloud Infrastructure.Kubernetes Cluster .External Services..global_maps" data-source-line="72" id="ent0027"><rect fill="#FFFFFF" height="46.2969" rx="2.5" ry="2.5" style="stroke:#000000;stroke-width:1;" width="159.6768" x="1483.9515" y="786.4994"/><rect fill="#FFFFFF" height="10" style="stroke:#000000;stroke-width:1;" width="15" x="1623.6283" y="791.4994"/><rect fill="#FFFFFF" height="2" style="stroke:#000000;stroke-width:1;" width="4" x="1621.6283" y="793.4994"/><rect fill="#FFFFFF" height="2" style="stroke:#000000;stroke-width:1;" width="4" x="1621.6283" y="797.4994"/><text fill="#000000" font-family="Verdana" font-size="14" lengthAdjust="spacing" textLength="119.6768" x="1498.9515" y="819.4945">Yandex Maps API</text></g><!--link mobile_app to api_gateway--><g class="link" data-entity-1="ent0003" data-entity-2="ent0009" data-link-type="dependency" data-source-line="79" id="lnk28"><path d="M761.8115,232.2694 C774.1315,250.9694 790.2915,275.3794 804.7915,296.9094 C828.1515,331.5894 852.2315,366.6126 868.9815,390.8626" fill="none" id="mobile_app-to-api_gateway" style="stroke:#000000;stroke-width:1;"/><polygon fill="#000000" points="872.3915,395.7994,870.5678,386.1208,869.5499,391.6854,863.9854,390.6675,872.3915,395.7994" style="stroke:#000000;stroke-width:1;"/><text fill="#000000" font-family="Verdana" font-size="13" lengthAdjust="spacing" textLength="147.4053" x="805.7915" y="292.9763">HTTPS (REST API calls)</text></g><!--link web_app to api_gateway--><g class="link" data-entity-1="ent0006" data-entity-2="ent0009" data-link-type="dependency" data-source-line="80" id="lnk29"><path d="M999.8815,224.0894 C975.9315,265.5394 927.8536,348.7244 903.8136,390.3244" fill="none" id="web_app-to-api_gateway" style="stroke:#000000;stroke-width:1;"/><polygon fill="#000000" points="900.8115,395.5194,908.7779,389.7283,903.3132,391.1902,901.8513,385.7256,900.8115,395.5194" style="stroke:#000000;stroke-width:1;"/><text fill="#000000" font-family="Verdana" font-size="13" lengthAdjust="spacing" textLength="147.4053" x="966.1615" y="292.9763">HTTPS (REST API calls)</text></g><!--link api_gateway to user_service--><g class="link" data-entity-1="ent0009" data-entity-2="ent0012" data-link-type="dependency" data-source-line="83" id="lnk30"><path d="M823.3115,437.1994 C784.5815,449.7994 735.9615,469.8794 699.7915,499.2094 C667.0115,525.7794 644.5137,563.4176 631.1437,589.5576" fill="none" id="api_gateway-to-user_service" style="stroke:#000000;stroke-width:1;"/><polygon fill="#000000" points="628.4115,594.8994,636.071,588.7081,630.6884,590.4479,628.9486,585.0652,628.4115,594.8994" style="stroke:#000000;stroke-width:1;"/><text fill="#000000" font-family="Verdana" font-size="13" lengthAdjust="spacing" textLength="34.2012" x="737.5415" y="487.2763">gRPC</text></g><!--link api_gateway to payment_service--><g class="link" data-entity-1="ent0009" data-entity-2="ent0013" data-link-type="dependency" data-source-line="84" id="lnk31"><path d="M952.3215,439.4794 C989.3015,452.5994 1035.2715,472.4394 1070.7915,499.2094 C1106.6115,526.1994 1134.1561,563.9993 1150.9561,590.0093" fill="none" id="api_gateway-to-payment_service" style="stroke:#000000;stroke-width:1;"/><polygon fill="#000000" points="1154.2115,595.0494,1152.6884,585.319,1151.4987,590.8493,1145.9683,589.6595,1154.2115,595.0494" style="stroke:#000000;stroke-width:1;"/><text fill="#000000" font-family="Verdana" font-size="13" lengthAdjust="spacing" textLength="34.2012" x="1058.6415" y="487.2763">gRPC</text></g><!--link api_gateway to dispatch_service--><g class="link" data-entity-1="ent0009" data-entity-2="ent0014" data-link-type="dependency" data-source-line="85" id="lnk32"><path d="M877.2415,442.6894 C859.4915,480.7494 826.4168,551.6713 808.7568,589.5513" fill="none" id="api_gateway-to-dispatch_service" style="stroke:#000000;stroke-width:1;"/><polygon fill="#000000" points="806.2215,594.9894,813.6498,588.5225,808.3342,590.4577,806.399,585.1421,806.2215,594.9894" style="stroke:#000000;stroke-width:1;"/><text fill="#000000" font-family="Verdana" font-size="13" lengthAdjust="spacing" textLength="34.2012" x="861.6115" y="487.2763">gRPC</text></g><!--link api_gateway to pricing_service--><g class="link" data-entity-1="ent0009" data-entity-2="ent0015" data-link-type="dependency" data-source-line="86" id="lnk33"><path d="M898.5715,442.6894 C916.7115,480.7494 950.5117,551.6923 968.5517,589.5723" fill="none" id="api_gateway-to-pricing_service" style="stroke:#000000;stroke-width:1;"/><polygon fill="#000000" points="971.1315,594.9894,970.8731,585.1439,968.9817,590.4752,963.6504,588.5837,971.1315,594.9894" style="stroke:#000000;stroke-width:1;"/><text fill="#000000" font-family="Verdana" font-size="13" lengthAdjust="spacing" textLength="34.2012" x="921.8815" y="487.2763">gRPC</text></g><!--link api_gateway to maps_service--><g class="link" data-entity-1="ent0009" data-entity-2="ent0016" data-link-type="dependency" data-source-line="87" id="lnk34"><path d="M952.1915,422.6794 C1030.3615,428.2394 1164.1915,445.5194 1264.7915,499.2094 C1309.0815,522.8394 1344.5091,562.8823 1365.5991,590.0123" fill="none" id="api_gateway-to-maps_service" style="stroke:#000000;stroke-width:1;"/><polygon fill="#000000" points="1369.2815,594.7494,1366.9159,585.1888,1366.2128,590.8018,1360.5998,590.0988,1369.2815,594.7494" style="stroke:#000000;stroke-width:1;"/><text fill="#000000" font-family="Verdana" font-size="13" lengthAdjust="spacing" textLength="34.2012" x="1247.3215" y="487.2763">gRPC</text></g><!--link notification_service to api_gateway--><g class="link" data-entity-1="ent0017" data-entity-2="ent0009" data-link-type="dependency" data-source-line="88" id="lnk35"><path d="M444.4615,594.8094 C462.1015,567.7494 495.3715,523.0394 535.7915,499.2094 C626.1715,445.9194 742.9891,428.9387 817.0991,423.2487" fill="none" id="notification_service-to-api_gateway" style="stroke:#000000;stroke-width:1;"/><polygon fill="#000000" points="823.0815,422.7894,813.8017,419.4901,818.0962,423.1721,814.4141,427.4666,823.0815,422.7894" style="stroke:#000000;stroke-width:1;"/><text fill="#000000" font-family="Verdana" font-size="13" lengthAdjust="spacing" textLength="34.2012" x="580.2115" y="487.2763">gRPC</text></g><!--link user_service to ydb--><g class="link" data-entity-1="ent0012" data-entity-2="ent0023" data-link-type="dependency" data-source-line="91" id="lnk36"><path d="M595.4015,641.7294 C579.8515,656.4894 558.1515,675.5994 536.7915,689.4994 C529.7915,694.0594 524.2615,690.4494 519.7915,697.4994 C515.7415,703.8794 514.4915,709.1194 519.7915,714.4994 C529.3215,724.1894 996.0915,717.6694 1008.7915,722.4994 C1042.6315,735.3794 1068.8631,760.6442 1086.9931,781.5742" fill="none" id="user_service-to-ydb" style="stroke:#000000;stroke-width:1;"/><polygon fill="#000000" points="1090.9215,786.1094,1088.0523,776.6877,1087.6478,782.3301,1082.0054,781.9256,1090.9215,786.1094" style="stroke:#000000;stroke-width:1;"/><text fill="#000000" font-family="Verdana" font-size="13" lengthAdjust="spacing" textLength="73.8931" x="520.7915" y="710.5663">YQL (gRPC)</text></g><!--link payment_service to ydb--><g class="link" data-entity-1="ent0013" data-entity-2="ent0023" data-link-type="dependency" data-source-line="92" id="lnk37"><path d="M1199.5915,641.9594 C1229.7415,663.5594 1270.7415,693.4194 1272.7915,697.4994 C1276.1815,704.2494 1276.5815,707.9594 1272.7915,714.4994 C1253.0515,748.5994 1221.2943,769.051 1187.2643,783.671" fill="none" id="payment_service-to-ydb" style="stroke:#000000;stroke-width:1;"/><polygon fill="#000000" points="1181.7515,786.0394,1191.5996,786.162,1186.3455,784.0657,1188.4417,778.8116,1181.7515,786.0394" style="stroke:#000000;stroke-width:1;"/><text fill="#000000" font-family="Verdana" font-size="13" lengthAdjust="spacing" textLength="73.8931" x="1276.4815" y="710.5663">YQL (gRPC)</text></g><!--link dispatch_service to ydb--><g class="link" data-entity-1="ent0014" data-entity-2="ent0023" data-link-type="dependency" data-source-line="93" id="lnk38"><path d="M803.7715,641.9694 C813.1015,664.6994 830.9315,698.5694 858.7915,714.4994 C887.7615,731.0794 977.8215,710.0494 1008.7915,722.4994 C1042.3815,736.0094 1068.6394,761.1536 1086.8594,781.8736" fill="none" id="dispatch_service-to-ydb" style="stroke:#000000;stroke-width:1;"/><polygon fill="#000000" points="1090.8215,786.3794,1087.8822,776.9794,1087.5198,782.6246,1081.8745,782.2622,1090.8215,786.3794" style="stroke:#000000;stroke-width:1;"/><text fill="#000000" font-family="Verdana" font-size="13" lengthAdjust="spacing" textLength="73.8931" x="859.7915" y="710.5663">YQL (gRPC)</text></g><!--link pricing_service to ydb--><g class="link" data-entity-1="ent0015" data-entity-2="ent0023" data-link-type="dependency" data-source-line="94" id="lnk39"><path d="M1000.0715,641.7694 C1012.3315,657.1194 1028.5815,678.1394 1041.7915,697.4994 C1062.1015,727.2794 1080.2355,758.0437 1093.1955,780.8337" fill="none" id="pricing_service-to-ydb" style="stroke:#000000;stroke-width:1;"/><polygon fill="#000000" points="1096.1615,786.0494,1095.1896,776.2486,1093.6899,781.703,1088.2354,780.2032,1096.1615,786.0494" style="stroke:#000000;stroke-width:1;"/><text fill="#000000" font-family="Verdana" font-size="13" lengthAdjust="spacing" textLength="73.8931" x="1052.5615" y="710.5663">YQL (gRPC)</text></g><!--link maps_service to ydb--><g class="link" data-entity-1="ent0016" data-entity-2="ent0023" data-link-type="dependency" data-source-line="95" id="lnk40"><path d="M1406.3115,641.9894 C1422.9715,663.1194 1440.8215,694.3294 1421.7915,714.4994 C1411.3315,725.5994 1299.5415,718.6294 1284.7915,722.4994 C1233.1315,736.0694 1183.7866,762.3126 1149.3666,782.9626" fill="none" id="maps_service-to-ydb" style="stroke:#000000;stroke-width:1;"/><polygon fill="#000000" points="1144.2215,786.0494,1153.997,784.8493,1148.5091,783.4771,1149.8813,777.9892,1144.2215,786.0494" style="stroke:#000000;stroke-width:1;"/><text fill="#000000" font-family="Verdana" font-size="13" lengthAdjust="spacing" textLength="73.8931" x="1430.5115" y="710.5663">YQL (gRPC)</text></g><!--link pricing_service to clickhouse--><g class="link" data-entity-1="ent0015" data-entity-2="ent0024" data-link-type="dependency" data-source-line="98" id="lnk41"><path d="M994.9015,641.7394 C1004.7015,661.5794 1014.6915,690.9594 1003.7915,714.4994 C989.4615,745.4594 964.4182,766.7042 939.1782,782.9342" fill="none" id="pricing_service-to-clickhouse" style="stroke:#000000;stroke-width:1;stroke-dasharray:7,7;"/><polygon fill="#000000" points="934.1315,786.1794,943.865,784.6761,938.3371,783.4751,939.5381,777.9472,934.1315,786.1794" style="stroke:#000000;stroke-width:1;"/><text fill="#000000" font-family="Verdana" font-size="13" lengthAdjust="spacing" textLength="24.8574" x="1009.0015" y="710.5663">TCP</text></g><!--link dispatch_service to clickhouse--><g class="link" data-entity-1="ent0014" data-entity-2="ent0024" data-link-type="dependency" data-source-line="99" id="lnk42"><path d="M789.8515,641.8994 C785.7915,661.8394 782.7615,691.2894 792.7915,714.4994 C805.7915,744.5994 828.8179,766.0158 851.8379,782.6458" fill="none" id="dispatch_service-to-clickhouse" style="stroke:#000000;stroke-width:1;stroke-dasharray:7,7;"/><polygon fill="#000000" points="856.7015,786.1594,851.7484,777.6466,852.6485,783.2314,847.0637,784.1315,856.7015,786.1594" style="stroke:#000000;stroke-width:1;"/><text fill="#000000" font-family="Verdana" font-size="13" lengthAdjust="spacing" textLength="24.8574" x="793.7915" y="710.5663">TCP</text></g><!--link user_service to redis--><g class="link" data-entity-1="ent0012" data-entity-2="ent0021" data-link-type="dependency" data-source-line="102" id="lnk43"><path d="M599.4115,641.7594 C584.4515,658.1994 561.7815,679.3594 536.7915,689.4994 C522.4615,695.3194 409.2815,687.1394 397.7915,697.4994 C373.4015,719.4994 372.6212,754.5247 375.4112,780.1147" fill="none" id="user_service-to-redis" style="stroke:#000000;stroke-width:1;stroke-dasharray:7,7;"/><polygon fill="#000000" points="376.0615,786.0794,379.0625,776.6989,375.5196,781.1088,371.1096,777.5659,376.0615,786.0794" style="stroke:#000000;stroke-width:1;"/><text fill="#000000" font-family="Verdana" font-size="13" lengthAdjust="spacing" textLength="24.8574" x="398.7915" y="710.5663">TCP</text></g><!--link dispatch_service to redis--><g class="link" data-entity-1="ent0014" data-entity-2="ent0021" data-link-type="dependency" data-source-line="103" id="lnk44"><path d="M772.2315,641.9394 C753.9815,658.0294 727.2415,678.6394 699.7915,689.4994 C672.7215,700.2094 662.5515,688.7494 634.7915,697.4994 C619.4315,702.3494 618.2815,710.0894 602.7915,714.4994 C551.3815,729.1394 532.4015,702.5994 482.7915,722.4994 C448.8215,736.1294 421.8381,761.0285 402.9081,781.6585" fill="none" id="dispatch_service-to-redis" style="stroke:#000000;stroke-width:1;stroke-dasharray:7,7;"/><polygon fill="#000000" points="398.8515,786.0794,407.8836,782.1524,402.232,782.3953,401.9891,776.7437,398.8515,786.0794" style="stroke:#000000;stroke-width:1;"/><text fill="#000000" font-family="Verdana" font-size="13" lengthAdjust="spacing" textLength="24.8574" x="635.7915" y="710.5663">TCP</text></g><!--link pricing_service to redis--><g class="link" data-entity-1="ent0015" data-entity-2="ent0021" data-link-type="dependency" data-source-line="104" id="lnk45"><path d="M978.3415,641.9094 C973.5515,664.5794 962.4915,698.3994 937.7915,714.4994 C916.6115,728.3094 506.4815,713.6694 482.7915,722.4994 C448.2815,735.3794 421.1408,760.7156 402.3508,781.6356" fill="none" id="pricing_service-to-redis" style="stroke:#000000;stroke-width:1;stroke-dasharray:7,7;"/><polygon fill="#000000" points="398.3415,786.0994,407.3313,782.0766,401.6826,782.3795,401.3796,776.7308,398.3415,786.0994" style="stroke:#000000;stroke-width:1;"/><text fill="#000000" font-family="Verdana" font-size="13" lengthAdjust="spacing" textLength="24.8574" x="955.0315" y="710.5663">TCP</text></g><!--link user_service to kafka--><g class="link" data-entity-1="ent0012" data-entity-2="ent0019" data-link-type="dependency" data-source-line="107" id="lnk46"><path d="M599.0315,641.9494 C584.0415,658.2594 561.5015,679.1594 536.7915,689.4994 C516.0215,698.1994 451.0715,680.9694 435.7915,697.4994 C430.6615,703.0494 431.4115,708.3494 435.7915,714.4994 C442.0615,723.3194 449.7315,716.5794 458.7915,722.4994 C484.9415,739.5794 504.7735,762.2405 519.4335,781.5505" fill="none" id="user_service-to-kafka" style="stroke:#000000;stroke-width:1;"/><polygon fill="#000000" points="523.0615,786.3294,520.8053,776.7424,520.0381,782.347,514.4335,781.5798,523.0615,786.3294" style="stroke:#000000;stroke-width:1;"/><text fill="#000000" font-family="Verdana" font-size="13" lengthAdjust="spacing" textLength="46.5664" x="436.7915" y="710.5663">Publish</text></g><!--link payment_service to kafka--><g class="link" data-entity-1="ent0013" data-entity-2="ent0019" data-link-type="dependency" data-source-line="108" id="lnk47"><path d="M1166.9715,641.6694 C1164.8215,664.1494 1157.6815,697.8194 1134.7915,714.4994 C1118.8015,726.1494 798.2415,718.8894 778.7915,722.4994 C705.8815,736.0394 631.1151,766.2817 584.3451,787.2817" fill="none" id="payment_service-to-kafka" style="stroke:#000000;stroke-width:1;"/><polygon fill="#000000" points="578.8715,789.7394,588.7203,789.7019,583.4328,787.6913,585.4434,782.4038,578.8715,789.7394" style="stroke:#000000;stroke-width:1;"/><text fill="#000000" font-family="Verdana" font-size="13" lengthAdjust="spacing" textLength="46.5664" x="1150.3115" y="710.5663">Publish</text></g><!--link dispatch_service to kafka--><g class="link" data-entity-1="ent0014" data-entity-2="ent0019" data-link-type="dependency" data-source-line="109" id="lnk48"><path d="M765.8715,641.9794 C740.2015,661.3494 702.1715,689.9094 668.7915,714.4994 C635.2515,739.2094 601.4223,763.6657 575.0223,782.6557" fill="none" id="dispatch_service-to-kafka" style="stroke:#000000;stroke-width:1;"/><polygon fill="#000000" points="570.1515,786.1594,579.7934,784.1511,574.2105,783.2397,575.1219,777.6567,570.1515,786.1594" style="stroke:#000000;stroke-width:1;"/><text fill="#000000" font-family="Verdana" font-size="13" lengthAdjust="spacing" textLength="46.5664" x="690.6715" y="710.5663">Publish</text></g><!--link notification_service to kafka--><g class="link" data-entity-1="ent0017" data-entity-2="ent0019" data-link-type="dependency" data-source-line="110" id="lnk49"><path d="M342.5015,620.0294 C225.5315,623.7294 41.9115,640.9394 113.7915,714.4994 C127.1915,728.2194 441.3115,714.6394 458.7915,722.4994 C488.2015,735.7294 508.4756,760.4423 522.2156,781.2523" fill="none" id="notification_service-to-kafka" style="stroke:#000000;stroke-width:1;"/><polygon fill="#000000" points="525.5215,786.2594,523.9006,776.5448,522.7665,782.0868,517.2245,780.9528,525.5215,786.2594" style="stroke:#000000;stroke-width:1;"/><text fill="#000000" font-family="Verdana" font-size="13" lengthAdjust="spacing" textLength="63.8701" x="114.7915" y="710.5663">Subscribe</text></g><!--link kafka to notification_service--><g class="link" data-entity-1="ent0019" data-entity-2="ent0017" data-link-type="dependency" data-source-line="113" id="lnk50"><path d="M525.4915,786.3294 C511.7315,765.5594 488.1315,735.8794 458.7915,722.4994 C446.6515,716.9694 228.0615,724.0894 218.7915,714.4994 C174.4115,668.6094 259.994,644.0908 336.334,631.3008" fill="none" id="kafka-to-notification_service" style="stroke:#000000;stroke-width:1;stroke-dasharray:7,7;"/><polygon fill="#000000" points="342.2515,630.3094,332.7143,627.8515,337.3202,631.1356,334.0362,635.7415,342.2515,630.3094" style="stroke:#000000;stroke-width:1;"/><text fill="#000000" font-family="Verdana" font-size="13" lengthAdjust="spacing" textLength="109.0908" x="219.7915" y="710.5663">Consume Events</text></g><!--link payment_service to yandex_pay--><g class="link" data-entity-1="ent0013" data-entity-2="ent0026" data-link-type="dependency" data-source-line="116" id="lnk51"><path d="M1191.1315,641.9094 C1209.5515,658.1894 1236.7315,679.0894 1264.7915,689.4994 C1284.4415,696.7994 1343.5415,683.1194 1358.7915,697.4994 C1382.6115,719.9794 1382.8106,754.8663 1379.6106,780.2963" fill="none" id="payment_service-to-yandex_pay" style="stroke:#000000;stroke-width:1;"/><polygon fill="#000000" points="1378.8615,786.2494,1383.9539,777.8192,1379.4858,781.2885,1376.0165,776.8204,1378.8615,786.2494" style="stroke:#000000;stroke-width:1;"/><text fill="#000000" font-family="Verdana" font-size="13" lengthAdjust="spacing" textLength="41.7485" x="1371.9215" y="710.5663">HTTPS</text></g><!--link maps_service to global_maps--><g class="link" data-entity-1="ent0016" data-entity-2="ent0027" data-link-type="dependency" data-source-line="117" id="lnk52"><path d="M1489.6815,635.1894 C1526.2815,646.3094 1563.7715,665.2594 1585.7915,697.4994 C1603.9815,724.1394 1592.6202,756.9516 1580.1002,780.9116" fill="none" id="maps_service-to-global_maps" style="stroke:#000000;stroke-width:1;"/><polygon fill="#000000" points="1577.3215,786.2294,1585.0348,780.1052,1579.6371,781.7979,1577.9444,776.4002,1577.3215,786.2294" style="stroke:#000000;stroke-width:1;"/><text fill="#000000" font-family="Verdana" font-size="13" lengthAdjust="spacing" textLength="41.7485" x="1593.8315" y="710.5663">HTTPS</text></g><?plantuml-src bLRRRjj647tdLqnL89M0AddfGn441dGn4iDsmaXA0yCjX2Mv5XSYTzdTfMqXyBzdPfUKI8eqMZrOvioPcJDNyHURyfn3aJ4XWy3iXIoOPZb8bN3u4G3CMRpVQLNAPA4ofU5xAYnVvshFIQbqmhLNB9dUpxEIn3EjrPEN_lg7-mGlJUUnoWibkRJ34JhEvnc2EauoLIQz3cx4BhMB0vCz39suvITXbaNCyF_FnGgRSRXZCk7Fy571aXUPEkIKrrAm7JaVX-d1Y9Xby9VWJvCW-0scqoaiCa6eZU2QdWDNxT4tWu_hd6bRf5YU4NpuaF174VEB2s36QqBIEAgd8jwVADogI22dML7yBSVYo_hTJ2PQYMJo3td8dNRBYeBeDu8kq5TfkUw6hEKkeCT_vn7CiRt6e_apZqihb0Gk7uLMaj97Op8Ou4WUaA1ZzCGZHmVWXIZLrQ7ENia7pOpLPMnBpLsPVCj7bQi-s0W37wdUA9PWHpCcOoABuMxcvyHcuHLyP9O_iOEZn0gntVbdHml_LBHyCJ1kQMpLk3hKTHbnBRdbvgWUOuuPjjuLXpezSHIk_pGL1syPgcHK2Lgq_31mJSrml4eKR8qNdCD3vWUlQL5usR3HKfY2sJXjMIMLy9LOMiH2xjgnl6pOw9OL1jx0Ik6qT6npL0qRVbPMFDHrR9h9Xg9b_jBkswr8aWpRYKFq1c-0PQtEtN9Zs8xJJEzf4tptNAkyw7Dz2G7-BNd9uVwQFUoPex2d_-fetj-AOm5RRfoauQMHMmLcSUfJqlJSzkS8hwtIHBBfTZcdObIx2QSpTd-tdCFuIy6rgmpB_EuVagY3moCKxpyfd2kSLSGTh8YD1yUaIaaL-7A-EkYNp_Y53khkc8c_35xwoZ70eGLSFy_FYRQ5sxe-i1kW6htBLCIoBKrE-tQiUERIDgb0E3KQ5TMvjQfpBOBJGKJeHNFruJryscp2DOnNb-iDnGMyufcP1DN9-ky6IA2wByIWhb7Gj2LVpVr6PxjLk3Z3T3Pw2DPTuK5txQKTWZNtiyRqBLzFIHmM2r1bJGLOrWCuna6T1AsqoG4EAXhUVRs1CLbFWcxIlQ2pbFjTTHBk1RNIxKMq4phk3enFApM1ASpCGSRlvkx2bgR4QJZy3b5fiJ-QnnOUy6N2Y9n-9OGzGCfn8hiCtxwzQ6mZqjWimlDaUr5jbkx8jAjDLkxYlEQs2UWZrzIt8_hBYlZp7hkxYKPX6MN2fBqjxc9wEzm53Ovb3LoNaOcrY3YHlP9uegOrx54m-4eNFl1WogxNttjy5P2cnDVcoqTaRJfvr-UmVt2FPwu-6EVprZXkHz1F?></g></svg>