<?plantuml 1.2026.0?><svg xmlns="http://www.w3.org/2000/svg" xmlns:xlink="http://www.w3.org/1999/xlink" contentStyleType="text/css" data-diagram-type="DESCRIPTION" height="858px" preserveAspectRatio="none" style="width:1591px;height:858px;background:#FFFFFF;" version="1.1" viewBox="0 0 1591 858" width="1591px" zoomAndPan="magnify"><title>Yandex Go Component Diagram</title><defs/><g><g class="title" data-source-line="3"><text fill="#000000" font-family="Verdana" font-size="22" font-weight="bold" lengthAdjust="spacing" textLength="394.2705" x="593.8647" y="35.4209">Yandex Go Component Diagram</text></g><!--cluster Yandex Go Ecosystem--><g class="cluster" data-qualified-name="Yandex Go Ecosystem" data-source-line="5" id="ent0002"><path d="M13.5,57.6094 L187.5039,57.6094 A3.75,3.75 0 0 1 190.0039,60.1094 L197.0039,79.9063 L1235.5,79.9063 A2.5,2.5 0 0 1 1238,82.4063 L1238,849.2994 A2.5,2.5 0 0 1 1235.5,851.7994 L13.5,851.7994 A2.5,2.5 0 0 1 11,849.2994 L11,60.1094 A2.5,2.5 0 0 1 13.5,57.6094" fill="#FFFFFF" style="stroke:#000000;stroke-width:1;"/><line style="stroke:#000000;stroke-width:1;" x1="11" x2="197.0039" y1="79.9063" y2="79.9063"/><text fill="#000000" font-family="Verdana" font-size="14" font-weight="bold" lengthAdjust="spacing" textLength="173.0039" x="15" y="72.6045">Yandex Go Ecosystem</text></g><!--cluster API Layer--><g class="cluster" data-qualified-name="Yandex Go Ecosystem.API Layer" data-source-line="9" id="ent0005"><path d="M518.5,281.9094 L594.5723,281.9094 A3.75,3.75 0 0 1 597.0723,284.4094 L604.0723,304.2063 L673.5,304.2063 A2.5,2.5 0 0 1 676,306.7063 L676,376.7094 A2.5,2.5 0 0 1 673.5,379.2094 L518.5,379.2094 A2.5,2.5 0 0 1 516,376.7094 L516,284.4094 A2.5,2.5 0 0 1 518.5,281.9094" fill="#FFFFFF" style="stroke:#000000;stroke-width:1;"/><line style="stroke:#000000;stroke-width:1;" x1="516" x2="604.0723" y1="304.2063" y2="304.2063"/><text fill="#000000" font-family="Verdana" font-size="14" font-weight="bold" lengthAdjust="spacing" textLength="75.0723" x="520" y="296.9045">API Layer</text></g><!--cluster Core Services--><g class="cluster" data-qualified-name="Yandex Go Ecosystem.Core Services" data-source-line="13" id="ent0007"><path d="M37.5,506.2094 L146.2002,506.2094 A3.75,3.75 0 0 1 148.7002,508.7094 L155.7002,528.5063 L1211.5,528.5063 A2.5,2.5 0 0 1 1214,531.0063 L1214,600.9994 A2.5,2.5 0 0 1 1211.5,603.4994 L37.5,603.4994 A2.5,2.5 0 0 1 35,600.9994 L35,508.7094 A2.5,2.5 0 0 1 37.5,506.2094" fill="#FFFFFF" style="stroke:#000000;stroke-width:1;"/><line style="stroke:#000000;stroke-width:1;" x1="35" x2="155.7002" y1="528.5063" y2="528.5063"/><text fill="#000000" font-family="Verdana" font-size="14" font-weight="bold" lengthAdjust="spacing" textLength="107.7002" x="39" y="521.2045">Core Services</text></g><!--cluster Data Layer--><g class="cluster" data-qualified-name="Yandex Go Ecosystem.Data Layer" data-source-line="22" id="ent0014"><path d="M310.5,730.4994 L397.4756,730.4994 A3.75,3.75 0 0 1 399.9756,732.9994 L406.9756,752.7963 L957.5,752.7963 A2.5,2.5 0 0 1 960,755.2963 L960,825.2994 A2.5,2.5 0 0 1 957.5,827.7994 L310.5,827.7994 A2.5,2.5 0 0 1 308,825.2994 L308,732.9994 A2.5,2.5 0 0 1 310.5,730.4994" fill="#FFFFFF" style="stroke:#000000;stroke-width:1;"/><line style="stroke:#000000;stroke-width:1;" x1="308" x2="406.9756" y1="752.7963" y2="752.7963"/><text fill="#000000" font-family="Verdana" font-size="14" font-weight="bold" lengthAdjust="spacing" textLength="85.9756" x="312" y="745.4945">Data Layer</text></g><!--cluster External Services--><g class="cluster" data-qualified-name="External Services" data-source-line="57" id="ent0035"><path d="M1264.5,730.4994 L1402.8066,730.4994 A3.75,3.75 0 0 1 1405.3066,732.9994 L1412.3066,752.7963 L1581.5,752.7963 A2.5,2.5 0 0 1 1584,755.2963 L1584,825.2994 A2.5,2.5 0 0 1 1581.5,827.7994 L1264.5,827.7994 A2.5,2.5 0 0 1 1262,825.2994 L1262,732.9994 A2.5,2.5 0 0 1 1264.5,730.4994" fill="#FFFFFF" style="stroke:#000000;stroke-width:1;"/><line style="stroke:#000000;stroke-width:1;" x1="1262" x2="1412.3066" y1="752.7963" y2="752.7963"/><text fill="#000000" font-family="Verdana" font-size="14" font-weight="bold" lengthAdjust="spacing" textLength="137.3066" x="1266" y="745.4945">External Services</text></g><!--entity mobile_app--><g class="entity" data-qualified-name="Yandex Go Ecosystem.mobile_app" data-source-line="6" id="ent0003"><rect fill="#FFFFFF" height="46.2969" rx="2.5" ry="2.5" style="stroke:#000000;stroke-width:1;" width="117.7246" x="465.14" y="92.6094"/><rect fill="#FFFFFF" height="10" style="stroke:#000000;stroke-width:1;" width="15" x="562.8646" y="97.6094"/><rect fill="#FFFFFF" height="2" style="stroke:#000000;stroke-width:1;" width="4" x="560.8646" y="99.6094"/><rect fill="#FFFFFF" height="2" style="stroke:#000000;stroke-width:1;" width="4" x="560.8646" y="103.6094"/><text fill="#000000" font-family="Verdana" font-size="14" lengthAdjust="spacing" textLength="77.7246" x="480.14" y="125.6045">Mobile App</text></g><!--entity web_app--><g class="entity" data-qualified-name="Yandex Go Ecosystem.web_app" data-source-line="7" id="ent0004"><rect fill="#FFFFFF" height="46.2969" rx="2.5" ry="2.5" style="stroke:#000000;stroke-width:1;" width="103.1436" x="617.43" y="92.6094"/><rect fill="#FFFFFF" height="10" style="stroke:#000000;stroke-width:1;" width="15" x="700.5736" y="97.6094"/><rect fill="#FFFFFF" height="2" style="stroke:#000000;stroke-width:1;" width="4" x="698.5736" y="99.6094"/><rect fill="#FFFFFF" height="2" style="stroke:#000000;stroke-width:1;" width="4" x="698.5736" y="103.6094"/><text fill="#000000" font-family="Verdana" font-size="14" lengthAdjust="spacing" textLength="63.1436" x="632.43" y="125.6045">Web App</text></g><!--entity queue--><g class="entity" data-qualified-name="Yandex Go Ecosystem.queue" data-source-line="28" id="ent0018"><path d="M31.69,775.4994 L284.3043,775.4994 C289.3043,775.4994 289.3043,788.6478 289.3043,788.6478 C289.3043,788.6478 289.3043,801.7963 284.3043,801.7963 L31.69,801.7963 C26.69,801.7963 26.69,788.6478 26.69,788.6478 C26.69,788.6478 26.69,775.4994 31.69,775.4994" fill="#FFFFFF" style="stroke:#000000;stroke-width:1;"/><path d="M284.3043,775.4994 C279.3043,775.4994 279.3043,788.6478 279.3043,788.6478 C279.3043,801.7963 284.3043,801.7963 284.3043,801.7963" fill="none" style="stroke:#000000;stroke-width:1;"/><text fill="#000000" font-family="Verdana" font-size="14" lengthAdjust="spacing" textLength="242.6143" x="31.69" y="793.4945">Message Broker (Kafka/Logbroker)</text></g><!--entity main_api--><g class="entity" data-qualified-name="Yandex Go Ecosystem.main_api" data-source-line="31" id="ent0019"><ellipse cx="596" cy="227.9094" fill="#FFFFFF" rx="8" ry="8" style="stroke:#000000;stroke-width:1;"/><text fill="#000000" font-family="Verdana" font-size="14" lengthAdjust="spacing" textLength="62.6104" x="564.6948" y="257.9045">REST API</text></g><!--entity db_crud_api--><g class="entity" data-qualified-name="Yandex Go Ecosystem.db_crud_api" data-source-line="32" id="ent0020"><ellipse cx="806" cy="676.4994" fill="#FFFFFF" rx="8" ry="8" style="stroke:#000000;stroke-width:1;"/><text fill="#000000" font-family="Verdana" font-size="14" lengthAdjust="spacing" textLength="27.3711" x="792.3145" y="706.4945">YQL</text></g><!--entity cache_api--><g class="entity" data-qualified-name="Yandex Go Ecosystem.cache_api" data-source-line="33" id="ent0021"><ellipse cx="518" cy="676.4994" fill="#FFFFFF" rx="8" ry="8" style="stroke:#000000;stroke-width:1;"/><text fill="#000000" font-family="Verdana" font-size="14" lengthAdjust="spacing" textLength="78.1143" x="478.9429" y="706.4945">Read/Write</text></g><!--entity queue_api--><g class="entity" data-qualified-name="Yandex Go Ecosystem.queue_api" data-source-line="34" id="ent0022"><ellipse cx="365" cy="676.4994" fill="#FFFFFF" rx="8" ry="8" style="stroke:#000000;stroke-width:1;"/><text fill="#000000" font-family="Verdana" font-size="14" lengthAdjust="spacing" textLength="47.4004" x="341.2998" y="706.4945">Events</text></g><!--entity user_service_api--><g class="entity" data-qualified-name="Yandex Go Ecosystem.user_service_api" data-source-line="36" id="ent0023"><ellipse cx="382" cy="452.2094" fill="#FFFFFF" rx="8" ry="8" style="stroke:#000000;stroke-width:1;"/><text fill="#000000" font-family="Verdana" font-size="14" lengthAdjust="spacing" textLength="36.832" x="363.584" y="482.2045">gRPC</text></g><!--entity payment_service_api--><g class="entity" data-qualified-name="Yandex Go Ecosystem.payment_service_api" data-source-line="37" id="ent0024"><ellipse cx="827" cy="452.2094" fill="#FFFFFF" rx="8" ry="8" style="stroke:#000000;stroke-width:1;"/><text fill="#000000" font-family="Verdana" font-size="14" lengthAdjust="spacing" textLength="36.832" x="808.584" y="482.2045">gRPC</text></g><!--entity dispatch_service_api--><g class="entity" data-qualified-name="Yandex Go Ecosystem.dispatch_service_api" data-source-line="38" id="ent0025"><ellipse cx="528" cy="452.2094" fill="#FFFFFF" rx="8" ry="8" style="stroke:#000000;stroke-width:1;"/><text fill="#000000" font-family="Verdana" font-size="14" lengthAdjust="spacing" textLength="36.832" x="509.584" y="482.2045">gRPC</text></g><!--entity notification_service_api--><g class="entity" data-qualified-name="Yandex Go Ecosystem.notification_service_api" data-source-line="39" id="ent0026"><ellipse cx="188" cy="452.2094" fill="#FFFFFF" rx="8" ry="8" style="stroke:#000000;stroke-width:1;"/><text fill="#000000" font-family="Verdana" font-size="14" lengthAdjust="spacing" textLength="36.832" x="169.584" y="482.2045">gRPC</text></g><!--entity pricing_service_api--><g class="entity" data-qualified-name="Yandex Go Ecosystem.pricing_service_api" data-source-line="40" id="ent0027"><ellipse cx="665" cy="452.2094" fill="#FFFFFF" rx="8" ry="8" style="stroke:#000000;stroke-width:1;"/><text fill="#000000" font-family="Verdana" font-size="14" lengthAdjust="spacing" textLength="36.832" x="646.584" y="482.2045">gRPC</text></g><!--entity maps_service_api--><g class="entity" data-qualified-name="Yandex Go Ecosystem.maps_service_api" data-source-line="41" id="ent0028"><ellipse cx="1017" cy="452.2094" fill="#FFFFFF" rx="8" ry="8" style="stroke:#000000;stroke-width:1;"/><text fill="#000000" font-family="Verdana" font-size="14" lengthAdjust="spacing" textLength="36.832" x="998.584" y="482.2045">gRPC</text></g><!--entity payment_api--><g class="entity" data-qualified-name="Yandex Go Ecosystem.payment_api" data-source-line="44" id="ent0029"><ellipse cx="958" cy="676.4994" fill="#FFFFFF" rx="8" ry="8" style="stroke:#000000;stroke-width:1;"/><text fill="#000000" font-family="Verdana" font-size="14" lengthAdjust="spacing" textLength="141.6816" x="887.1592" y="706.4945">Payment Processing</text></g><!--entity db_analytics_api--><g class="entity" data-qualified-name="Yandex Go Ecosystem.db_analytics_api" data-source-line="46" id="ent0030"><ellipse cx="667" cy="676.4994" fill="#FFFFFF" rx="8" ry="8" style="stroke:#000000;stroke-width:1;"/><text fill="#000000" font-family="Verdana" font-size="14" lengthAdjust="spacing" textLength="90.1729" x="621.9136" y="706.4945">Analytics API</text></g><!--entity maps_api--><g class="entity" data-qualified-name="Yandex Go Ecosystem.maps_api" data-source-line="48" id="ent0031"><ellipse cx="1116" cy="676.4994" fill="#FFFFFF" rx="8" ry="8" style="stroke:#000000;stroke-width:1;"/><text fill="#000000" font-family="Verdana" font-size="14" lengthAdjust="spacing" textLength="63.4375" x="1084.2813" y="706.4945">Maps API</text></g><!--entity api_gateway--><g class="entity" data-qualified-name="Yandex Go Ecosystem.API Layer.api_gateway" data-source-line="10" id="ent0006"><rect fill="#FFFFFF" height="46.2969" rx="2.5" ry="2.5" style="stroke:#000000;stroke-width:1;" width="128.4434" x="531.78" y="316.9094"/><rect fill="#FFFFFF" height="10" style="stroke:#000000;stroke-width:1;" width="15" x="640.2234" y="321.9094"/><rect fill="#FFFFFF" height="2" style="stroke:#000000;stroke-width:1;" width="4" x="638.2234" y="323.9094"/><rect fill="#FFFFFF" height="2" style="stroke:#000000;stroke-width:1;" width="4" x="638.2234" y="327.9094"/><text fill="#000000" font-family="Verdana" font-size="14" lengthAdjust="spacing" textLength="88.4434" x="546.78" y="349.9045">API Gateway</text></g><!--entity user_service--><g class="entity" data-qualified-name="Yandex Go Ecosystem.Core Services.user_service" data-source-line="14" id="ent0008"><rect fill="#FFFFFF" height="46.2969" rx="2.5" ry="2.5" style="stroke:#000000;stroke-width:1;" width="128.1016" x="261.95" y="541.2094"/><rect fill="#FFFFFF" height="10" style="stroke:#000000;stroke-width:1;" width="15" x="370.0516" y="546.2094"/><rect fill="#FFFFFF" height="2" style="stroke:#000000;stroke-width:1;" width="4" x="368.0516" y="548.2094"/><rect fill="#FFFFFF" height="2" style="stroke:#000000;stroke-width:1;" width="4" x="368.0516" y="552.2094"/><text fill="#000000" font-family="Verdana" font-size="14" lengthAdjust="spacing" textLength="88.1016" x="276.95" y="574.2045">User Service</text></g><!--entity payment_service--><g class="entity" data-qualified-name="Yandex Go Ecosystem.Core Services.payment_service" data-source-line="15" id="ent0009"><rect fill="#FFFFFF" height="46.2969" rx="2.5" ry="2.5" style="stroke:#000000;stroke-width:1;" width="158.1113" x="796.94" y="541.2094"/><rect fill="#FFFFFF" height="10" style="stroke:#000000;stroke-width:1;" width="15" x="935.0513" y="546.2094"/><rect fill="#FFFFFF" height="2" style="stroke:#000000;stroke-width:1;" width="4" x="933.0513" y="548.2094"/><rect fill="#FFFFFF" height="2" style="stroke:#000000;stroke-width:1;" width="4" x="933.0513" y="552.2094"/><text fill="#000000" font-family="Verdana" font-size="14" lengthAdjust="spacing" textLength="118.1113" x="811.94" y="574.2045">Payment Service</text></g><!--entity dispatch_service--><g class="entity" data-qualified-name="Yandex Go Ecosystem.Core Services.dispatch_service" data-source-line="16" id="ent0010"><rect fill="#FFFFFF" height="46.2969" rx="2.5" ry="2.5" style="stroke:#000000;stroke-width:1;" width="157.6807" x="425.16" y="541.2094"/><rect fill="#FFFFFF" height="10" style="stroke:#000000;stroke-width:1;" width="15" x="562.8407" y="546.2094"/><rect fill="#FFFFFF" height="2" style="stroke:#000000;stroke-width:1;" width="4" x="560.8407" y="548.2094"/><rect fill="#FFFFFF" height="2" style="stroke:#000000;stroke-width:1;" width="4" x="560.8407" y="552.2094"/><text fill="#000000" font-family="Verdana" font-size="14" lengthAdjust="spacing" textLength="117.6807" x="440.16" y="574.2045">Dispatch Service</text></g><!--entity pricing_service--><g class="entity" data-qualified-name="Yandex Go Ecosystem.Core Services.pricing_service" data-source-line="17" id="ent0011"><rect fill="#FFFFFF" height="46.2969" rx="2.5" ry="2.5" style="stroke:#000000;stroke-width:1;" width="143.626" x="618.19" y="541.2094"/><rect fill="#FFFFFF" height="10" style="stroke:#000000;stroke-width:1;" width="15" x="741.816" y="546.2094"/><rect fill="#FFFFFF" height="2" style="stroke:#000000;stroke-width:1;" width="4" x="739.816" y="548.2094"/><rect fill="#FFFFFF" height="2" style="stroke:#000000;stroke-width:1;" width="4" x="739.816" y="552.2094"/><text fill="#000000" font-family="Verdana" font-size="14" lengthAdjust="spacing" textLength="103.626" x="633.19" y="574.2045">Pricing Service</text></g><!--entity maps_service--><g class="entity" data-qualified-name="Yandex Go Ecosystem.Core Services.maps_service" data-source-line="18" id="ent0012"><rect fill="#FFFFFF" height="46.2969" rx="2.5" ry="2.5" style="stroke:#000000;stroke-width:1;" width="207.1523" x="990.42" y="541.2094"/><rect fill="#FFFFFF" height="10" style="stroke:#000000;stroke-width:1;" width="15" x="1177.5723" y="546.2094"/><rect fill="#FFFFFF" height="2" style="stroke:#000000;stroke-width:1;" width="4" x="1175.5723" y="548.2094"/><rect fill="#FFFFFF" height="2" style="stroke:#000000;stroke-width:1;" width="4" x="1175.5723" y="552.2094"/><text fill="#000000" font-family="Verdana" font-size="14" lengthAdjust="spacing" textLength="167.1523" x="1005.42" y="574.2045">Maps &amp; Routing Service</text></g><!--entity notification_service--><g class="entity" data-qualified-name="Yandex Go Ecosystem.Core Services.notification_service" data-source-line="19" id="ent0013"><rect fill="#FFFFFF" height="46.2969" rx="2.5" ry="2.5" style="stroke:#000000;stroke-width:1;" width="176.5205" x="50.74" y="541.2094"/><rect fill="#FFFFFF" height="10" style="stroke:#000000;stroke-width:1;" width="15" x="207.2605" y="546.2094"/><rect fill="#FFFFFF" height="2" style="stroke:#000000;stroke-width:1;" width="4" x="205.2605" y="548.2094"/><rect fill="#FFFFFF" height="2" style="stroke:#000000;stroke-width:1;" width="4" x="205.2605" y="552.2094"/><text fill="#000000" font-family="Verdana" font-size="14" lengthAdjust="spacing" textLength="136.5205" x="65.74" y="574.2045">Notification Service</text></g><!--entity db--><g class="entity" data-qualified-name="Yandex Go Ecosystem.Data Layer.db" data-source-line="23" id="ent0015"><rect fill="#FFFFFF" height="46.2969" rx="2.5" ry="2.5" style="stroke:#000000;stroke-width:1;" width="191.2861" x="752.36" y="765.4994"/><rect fill="#FFFFFF" height="10" style="stroke:#000000;stroke-width:1;" width="15" x="923.6461" y="770.4994"/><rect fill="#FFFFFF" height="2" style="stroke:#000000;stroke-width:1;" width="4" x="921.6461" y="772.4994"/><rect fill="#FFFFFF" height="2" style="stroke:#000000;stroke-width:1;" width="4" x="921.6461" y="776.4994"/><text fill="#000000" font-family="Verdana" font-size="14" lengthAdjust="spacing" textLength="151.2861" x="767.36" y="798.4945">Operational DB (YDB)</text></g><!--entity analytics--><g class="entity" data-qualified-name="Yandex Go Ecosystem.Data Layer.analytics" data-source-line="24" id="ent0016"><rect fill="#FFFFFF" height="46.2969" rx="2.5" ry="2.5" style="stroke:#000000;stroke-width:1;" width="221.0156" x="324.49" y="765.4994"/><rect fill="#FFFFFF" height="10" style="stroke:#000000;stroke-width:1;" width="15" x="525.5056" y="770.4994"/><rect fill="#FFFFFF" height="2" style="stroke:#000000;stroke-width:1;" width="4" x="523.5056" y="772.4994"/><rect fill="#FFFFFF" height="2" style="stroke:#000000;stroke-width:1;" width="4" x="523.5056" y="776.4994"/><text fill="#000000" font-family="Verdana" font-size="14" lengthAdjust="spacing" textLength="181.0156" x="339.49" y="798.4945">Analytics DB (ClickHouse)</text></g><!--entity cache--><g class="entity" data-qualified-name="Yandex Go Ecosystem.Data Layer.cache" data-source-line="25" id="ent0017"><rect fill="#FFFFFF" height="46.2969" rx="2.5" ry="2.5" style="stroke:#000000;stroke-width:1;" width="137.3232" x="580.34" y="765.4994"/><rect fill="#FFFFFF" height="10" style="stroke:#000000;stroke-width:1;" width="15" x="697.6632" y="770.4994"/><rect fill="#FFFFFF" height="2" style="stroke:#000000;stroke-width:1;" width="4" x="695.6632" y="772.4994"/><rect fill="#FFFFFF" height="2" style="stroke:#000000;stroke-width:1;" width="4" x="695.6632" y="776.4994"/><text fill="#000000" font-family="Verdana" font-size="14" lengthAdjust="spacing" textLength="97.3232" x="595.34" y="798.4945">Cache (Redis)</text></g><!--entity external_payment_gateway--><g class="entity" data-qualified-name="External Services.external_payment_gateway" data-source-line="58" id="ent0036"><rect fill="#FFFFFF" height="46.2969" rx="2.5" ry="2.5" style="stroke:#000000;stroke-width:1;" width="121.5459" x="1278.23" y="765.4994"/><rect fill="#FFFFFF" height="10" style="stroke:#000000;stroke-width:1;" width="15" x="1379.7759" y="770.4994"/><rect fill="#FFFFFF" height="2" style="stroke:#000000;stroke-width:1;" width="4" x="1377.7759" y="772.4994"/><rect fill="#FFFFFF" height="2" style="stroke:#000000;stroke-width:1;" width="4" x="1377.7759" y="776.4994"/><text fill="#000000" font-family="Verdana" font-size="14" lengthAdjust="spacing" textLength="81.5459" x="1293.23" y="798.4945">Yandex Pay</text></g><!--entity global_maps--><g class="entity" data-qualified-name="External Services.global_maps" data-source-line="59" id="ent0037"><rect fill="#FFFFFF" height="46.2969" rx="2.5" ry="2.5" style="stroke:#000000;stroke-width:1;" width="133.0781" x="1434.46" y="765.4994"/><rect fill="#FFFFFF" height="10" style="stroke:#000000;stroke-width:1;" width="15" x="1547.5381" y="770.4994"/><rect fill="#FFFFFF" height="2" style="stroke:#000000;stroke-width:1;" width="4" x="1545.5381" y="772.4994"/><rect fill="#FFFFFF" height="2" style="stroke:#000000;stroke-width:1;" width="4" x="1545.5381" y="776.4994"/><text fill="#000000" font-family="Verdana" font-size="14" lengthAdjust="spacing" textLength="93.0781" x="1449.46" y="798.4945">Yandex Maps</text></g><!--link mobile_app to main_api--><g class="link" data-entity-1="ent0003" data-entity-2="ent0019" data-source-line="52" id="lnk32"><path d="M538.74,139.3194 C554.95,164.1194 574.6485,194.2491 585.3885,210.6791" fill="none" id="mobile_app-to-main_api" style="stroke:#000000;stroke-width:1;"/><path d="M596.2547,211.8454 A9,9 0 0 0 582.0968 221.1002" fill="none" style="stroke:#000000;stroke-width:1.5;"/></g><!--link web_app to main_api--><g class="link" data-entity-1="ent0004" data-entity-2="ent0019" data-source-line="53" id="lnk33"><path d="M654.05,139.3194 C637.62,164.1194 617.6247,194.2841 606.7347,210.7141" fill="none" id="web_app-to-main_api" style="stroke:#000000;stroke-width:1;"/><path d="M609.96,221.156 A9,9 0 0 0 595.8613 211.8112" fill="none" style="stroke:#000000;stroke-width:1.5;"/></g><!--link main_api to api_gateway--><g class="link" data-entity-1="ent0019" data-entity-2="ent0006" data-link-type="association" data-source-line="54" id="lnk34"><path d="M596,236.8294 C596,253.3094 596,291.7894 596,316.5594" fill="none" id="main_api-api_gateway" style="stroke:#000000;stroke-width:1;"/></g><!--link api_gateway to user_service_api--><g class="link" data-entity-1="ent0006" data-entity-2="ent0023" data-source-line="64" id="lnk38"><path d="M552.18,363.6094 C500.33,390.2994 426.5414,428.2831 399.6514,442.1231" fill="none" id="api_gateway-to-user_service_api" style="stroke:#000000;stroke-width:1;"/><path d="M397.3672,452.8104 A9,9 0 0 0 389.6266 437.771" fill="none" style="stroke:#000000;stroke-width:1.5;"/></g><!--link api_gateway to payment_service_api--><g class="link" data-entity-1="ent0006" data-entity-2="ent0024" data-source-line="65" id="lnk39"><path d="M643.3,363.6094 C699.8,390.5494 781.1839,429.3548 809.3239,442.7748" fill="none" id="api_gateway-to-payment_service_api" style="stroke:#000000;stroke-width:1;"/><path d="M819.2121,438.1208 A9,9 0 0 0 811.9311 453.3879" fill="none" style="stroke:#000000;stroke-width:1.5;"/></g><!--link api_gateway to dispatch_service_api--><g class="link" data-entity-1="ent0006" data-entity-2="ent0025" data-source-line="66" id="lnk40"><path d="M582.08,363.6094 C566.77,388.4094 548.2557,418.4019 538.1057,434.8319" fill="none" id="api_gateway-to-dispatch_service_api" style="stroke:#000000;stroke-width:1;"/><path d="M541.6628,445.1655 A9,9 0 0 0 527.2728 436.2757" fill="none" style="stroke:#000000;stroke-width:1.5;"/></g><!--link api_gateway to notification_service_api--><g class="link" data-entity-1="ent0006" data-entity-2="ent0026" data-source-line="67" id="lnk41"><path d="M531.35,358.5094 C429.79,385.9294 249.604,434.5715 206.514,446.2115" fill="none" id="api_gateway-to-notification_service_api" style="stroke:#000000;stroke-width:1;"/><path d="M202.0372,456.1812 A9,9 0 0 0 197.6261 439.852" fill="none" style="stroke:#000000;stroke-width:1.5;"/></g><!--link api_gateway to pricing_service_api--><g class="link" data-entity-1="ent0006" data-entity-2="ent0027" data-source-line="68" id="lnk42"><path d="M610.13,363.6094 C625.66,388.4094 644.4684,418.4366 654.7684,434.8666" fill="none" id="api_gateway-to-pricing_service_api" style="stroke:#000000;stroke-width:1;"/><path d="M665.6106,436.2392 A9,9 0 0 0 651.2794 445.2234" fill="none" style="stroke:#000000;stroke-width:1.5;"/></g><!--link api_gateway to maps_service_api--><g class="link" data-entity-1="ent0006" data-entity-2="ent0028" data-source-line="69" id="lnk43"><path d="M660.4,357.9094 C764.74,385.2094 953.9258,434.6976 998.3658,446.3276" fill="none" id="api_gateway-to-maps_service_api" style="stroke:#000000;stroke-width:1;"/><path d="M1007.2033,439.8984 A9,9 0 0 0 1002.9209 456.2618" fill="none" style="stroke:#000000;stroke-width:1.5;"/></g><!--link user_service_api to user_service--><g class="link" data-entity-1="ent0023" data-entity-2="ent0008" data-link-type="association" data-source-line="71" id="lnk44"><path d="M377.97,461.1294 C369.6,477.5994 350.03,516.0894 337.44,540.8494" fill="none" id="user_service_api-user_service" style="stroke:#000000;stroke-width:1;"/></g><!--link payment_service_api to payment_service--><g class="link" data-entity-1="ent0024" data-entity-2="ent0009" data-link-type="association" data-source-line="72" id="lnk45"><path d="M830.52,461.1294 C837.85,477.5994 854.97,516.0894 865.99,540.8494" fill="none" id="payment_service_api-payment_service" style="stroke:#000000;stroke-width:1;"/></g><!--link dispatch_service_api to dispatch_service--><g class="link" data-entity-1="ent0025" data-entity-2="ent0010" data-link-type="association" data-source-line="73" id="lnk46"><path d="M526.27,461.1294 C522.68,477.5994 514.3,516.0894 508.9,540.8494" fill="none" id="dispatch_service_api-dispatch_service" style="stroke:#000000;stroke-width:1;"/></g><!--link notification_service_api to notification_service--><g class="link" data-entity-1="ent0026" data-entity-2="ent0013" data-link-type="association" data-source-line="74" id="lnk47"><path d="M184.48,461.1294 C177.15,477.5994 160.03,516.0894 149.01,540.8494" fill="none" id="notification_service_api-notification_service" style="stroke:#000000;stroke-width:1;"/></g><!--link pricing_service_api to pricing_service--><g class="link" data-entity-1="ent0027" data-entity-2="ent0011" data-link-type="association" data-source-line="77" id="lnk49"><path d="M666.8,461.1294 C670.54,477.5994 679.27,516.0894 684.89,540.8494" fill="none" id="pricing_service_api-pricing_service" style="stroke:#000000;stroke-width:1;"/></g><!--link maps_service_api to maps_service--><g class="link" data-entity-1="ent0028" data-entity-2="ent0012" data-link-type="association" data-source-line="78" id="lnk51"><path d="M1022.54,461.1294 C1034.06,477.5994 1060.96,516.0894 1078.27,540.8494" fill="none" id="maps_service_api-maps_service" style="stroke:#000000;stroke-width:1;"/></g><!--link db_crud_api to db--><g class="link" data-entity-1="ent0020" data-entity-2="ent0015" data-link-type="association" data-source-line="80" id="lnk53"><path d="M809.02,685.4194 C815.3,701.8994 829.98,740.3794 839.42,765.1494" fill="none" id="db_crud_api-db" style="stroke:#000000;stroke-width:1;"/></g><!--link db_analytics_api to analytics--><g class="link" data-entity-1="ent0030" data-entity-2="ent0016" data-link-type="association" data-source-line="81" id="lnk55"><path d="M658.01,681.1694 C639.89,688.6094 597.72,706.1794 563,722.4994 C534.23,736.0294 502.37,752.2494 477.63,765.1094" fill="none" id="db_analytics_api-analytics" style="stroke:#000000;stroke-width:1;"/></g><!--link cache_api to cache--><g class="link" data-entity-1="ent0021" data-entity-2="ent0017" data-link-type="association" data-source-line="82" id="lnk57"><path d="M526.6,684.7294 C545.66,700.7594 592.18,739.8794 622.07,764.9994" fill="none" id="cache_api-cache" style="stroke:#000000;stroke-width:1;"/></g><!--link queue_api to queue--><g class="link" data-entity-1="ent0022" data-entity-2="ent0018" data-link-type="association" data-source-line="83" id="lnk59"><path d="M356.11,682.2394 C326,698.2494 227.29,750.7794 181.59,775.0994" fill="none" id="queue_api-queue" style="stroke:#000000;stroke-width:1;"/></g><!--link user_service to db_crud_api--><g class="link" data-entity-1="ent0008" data-entity-2="ent0020" data-source-line="86" id="lnk60"><path d="M358.9,587.8994 C373.34,596.7194 390.89,606.0094 408,611.4994 C548.48,656.5994 595.04,611.0494 738,647.4994 C760.02,653.1194 775.3499,659.9788 788.0999,666.3688" fill="none" id="user_service-to-db_crud_api" style="stroke:#000000;stroke-width:1;"/><path d="M798.0774,661.9094 A9,9 0 0 0 790.4988 677.031" fill="none" style="stroke:#000000;stroke-width:1.5;"/></g><!--link payment_service to db_crud_api--><g class="link" data-entity-1="ent0009" data-entity-2="ent0020" data-source-line="87" id="lnk61"><path d="M861.67,587.9094 C845.91,612.7094 826.8031,642.7692 816.3631,659.1992" fill="none" id="payment_service-to-db_crud_api" style="stroke:#000000;stroke-width:1;"/><path d="M819.7889,669.577 A9,9 0 0 0 805.5128 660.5056" fill="none" style="stroke:#000000;stroke-width:1.5;"/></g><!--link dispatch_service to db_crud_api--><g class="link" data-entity-1="ent0010" data-entity-2="ent0020" data-source-line="88" id="lnk62"><path d="M546.72,587.7994 C563.36,595.9794 582.78,604.8394 601,611.4994 C660.13,633.1194 678.32,627.4694 738,647.4994 C759.79,654.8094 775.4454,661.5535 788.2354,667.3635" fill="none" id="dispatch_service-to-db_crud_api" style="stroke:#000000;stroke-width:1;"/><path d="M798.0352,662.5263 A9,9 0 0 0 791.0396 677.9263" fill="none" style="stroke:#000000;stroke-width:1.5;"/></g><!--link pricing_service to db_crud_api--><g class="link" data-entity-1="ent0011" data-entity-2="ent0020" data-source-line="89" id="lnk63"><path d="M713.75,587.9094 C739.87,612.7094 773.169,644.323 790.469,660.753" fill="none" id="pricing_service-to-db_crud_api" style="stroke:#000000;stroke-width:1;"/><path d="M801.312,659.3872 A9,9 0 0 0 789.664 671.652" fill="none" style="stroke:#000000;stroke-width:1.5;"/></g><!--link maps_service to db_crud_api--><g class="link" data-entity-1="ent0012" data-entity-2="ent0020" data-source-line="90" id="lnk64"><path d="M1036.35,587.9894 C1016.37,595.6594 993.77,604.1494 973,611.4994 C924.51,628.6694 910.65,628.1194 863,647.4994 C845.43,654.6494 834.5511,660.1003 823.5211,666.0203" fill="none" id="maps_service-to-db_crud_api" style="stroke:#000000;stroke-width:1;"/><path d="M821.4217,676.7454 A9,9 0 0 0 813.4227 661.8419" fill="none" style="stroke:#000000;stroke-width:1.5;"/></g><!--link pricing_service to db_analytics_api--><g class="link" data-entity-1="ent0011" data-entity-2="ent0030" data-source-line="92" id="lnk65"><path d="M685.29,587.9094 C680.11,612.7094 674.1136,641.4204 670.6836,657.8504" fill="none" id="pricing_service-to-db_analytics_api" style="stroke:#000000;stroke-width:1;"/><path d="M677.5478,666.3545 A9,9 0 0 0 660.9903 662.8978" fill="none" style="stroke:#000000;stroke-width:1.5;"/></g><!--link user_service to cache_api--><g class="link" data-entity-1="ent0008" data-entity-2="ent0021" data-source-line="94" id="lnk66"><path d="M365.32,587.9094 C411.18,614.2194 475.2461,650.9731 500.4161,665.4131" fill="none" id="user_service-to-cache_api" style="stroke:#000000;stroke-width:1;"/><path d="M510.6285,661.5219 A9,9 0 0 0 502.2115 676.1934" fill="none" style="stroke:#000000;stroke-width:1.5;"/></g><!--link dispatch_service to cache_api--><g class="link" data-entity-1="ent0010" data-entity-2="ent0021" data-source-line="95" id="lnk67"><path d="M506.87,587.9094 C510.02,612.7094 513.6481,641.2893 515.7381,657.7193" fill="none" id="dispatch_service-to-cache_api" style="stroke:#000000;stroke-width:1;"/><path d="M525.0012,663.5186 A9,9 0 0 0 508.2219 665.653" fill="none" style="stroke:#000000;stroke-width:1.5;"/></g><!--link pricing_service to cache_api--><g class="link" data-entity-1="ent0011" data-entity-2="ent0021" data-source-line="96" id="lnk68"><path d="M654.78,587.9094 C614.29,613.8394 558.8115,649.3669 535.4015,664.3569" fill="none" id="pricing_service-to-cache_api" style="stroke:#000000;stroke-width:1;"/><path d="M534.1328,675.2117 A9,9 0 0 0 525.0117 660.9672" fill="none" style="stroke:#000000;stroke-width:1.5;"/></g><!--link user_service to queue_api--><g class="link" data-entity-1="ent0008" data-entity-2="ent0022" data-source-line="99" id="lnk69"><path d="M333.99,587.9094 C342.77,612.7094 353.061,641.7833 358.881,658.2133" fill="none" id="user_service-to-queue_api" style="stroke:#000000;stroke-width:1;"/><path d="M369.1641,661.914 A9,9 0 0 0 353.2203 667.5617" fill="none" style="stroke:#000000;stroke-width:1.5;"/></g><!--reverse link queue_api to analytics--><g class="link" data-entity-1="ent0022" data-entity-2="ent0016" data-source-line="100" id="lnk71"><path d="M375.3925,693.86 C385.8625,710.34 404.96,740.3794 420.7,765.1494" fill="none" id="queue_api-backto-analytics" style="stroke:#000000;stroke-width:1;"/><path d="M364.5422,692.5527 A9,9 0 0 0 378.8191 683.4824" fill="none" style="stroke:#000000;stroke-width:1.5;"/></g><!--link payment_service to queue_api--><g class="link" data-entity-1="ent0009" data-entity-2="ent0022" data-source-line="101" id="lnk72"><path d="M836.59,587.7894 C819.41,596.5794 798.73,605.8894 779,611.4994 C639.22,651.2694 596.21,617.5494 454,647.4994 C424.04,653.8094 399.1677,662.5433 383.2977,668.5233" fill="none" id="payment_service-to-queue_api" style="stroke:#000000;stroke-width:1;"/><path d="M379.8026,678.878 A9,9 0 0 0 373.8384 663.0499" fill="none" style="stroke:#000000;stroke-width:1.5;"/></g><!--link dispatch_service to queue_api--><g class="link" data-entity-1="ent0010" data-entity-2="ent0022" data-source-line="102" id="lnk73"><path d="M475.54,587.9094 C443.77,613.0894 402.0078,646.179 381.8278,662.169" fill="none" id="dispatch_service-to-queue_api" style="stroke:#000000;stroke-width:1;"/><path d="M381.6549,673.0963 A9,9 0 0 0 371.1503 659.8391" fill="none" style="stroke:#000000;stroke-width:1.5;"/></g><!--link notification_service to queue_api--><g class="link" data-entity-1="ent0013" data-entity-2="ent0022" data-source-line="103" id="lnk74"><path d="M185.28,587.9094 C240.29,614.7194 319.1906,653.1787 347.1606,666.8087" fill="none" id="notification_service-to-queue_api" style="stroke:#000000;stroke-width:1;"/><path d="M357.0877,662.2384 A9,9 0 0 0 349.6781 677.4435" fill="none" style="stroke:#000000;stroke-width:1.5;"/></g><!--link payment_service to payment_api--><g class="link" data-entity-1="ent0009" data-entity-2="ent0029" data-source-line="106" id="lnk75"><path d="M892.79,587.9094 C911.25,612.7094 933.9489,643.1877 946.1789,659.6177" fill="none" id="payment_service-to-payment_api" style="stroke:#000000;stroke-width:1;"/><path d="M957.0961,660.1203 A9,9 0 0 0 943.5279 670.22" fill="none" style="stroke:#000000;stroke-width:1.5;"/></g><!--link payment_api to external_payment_gateway--><g class="link" data-entity-1="ent0029" data-entity-2="ent0036" data-link-type="association" data-source-line="107" id="lnk76"><path d="M966.67,680.0094 C1007.6,691.8394 1183.37,742.6594 1278.04,770.0294" fill="none" id="payment_api-external_payment_gateway" style="stroke:#000000;stroke-width:1;"/></g><!--link maps_service to maps_api--><g class="link" data-entity-1="ent0012" data-entity-2="ent0031" data-source-line="110" id="lnk77"><path d="M1098.51,587.9094 C1103.46,612.7094 1109.1923,641.4029 1112.4723,657.8329" fill="none" id="maps_service-to-maps_api" style="stroke:#000000;stroke-width:1;"/><path d="M1122.121,662.9651 A9,9 0 0 0 1105.5338 666.2764" fill="none" style="stroke:#000000;stroke-width:1.5;"/></g><!--link maps_api to global_maps--><g class="link" data-entity-1="ent0031" data-entity-2="ent0037" data-link-type="association" data-source-line="111" id="lnk79"><path d="M1124.81,677.2294 C1161.99,676.4094 1309.15,676.3894 1417,722.4994 C1440.42,732.5194 1463,750.6594 1478.84,765.2694" fill="none" id="maps_api-global_maps" style="stroke:#000000;stroke-width:1;"/></g><?plantuml-src VLRRRXen47tVht3teS03oZU4YzAeIKj8goYA8kHTp6B1hjsrIOAg_7l7zdfzmLk91vXpxF7C71_pHUv9JH0_OjfacQJoID0pRhRa0zqmD6SrPmrf95fGNBMupZAEomEk2CeTQraoSHQIr3dwco7qSiyA2jjSS_wAi42r_hd1d2lmYHGzyawABWoVVkFhrIswmsVIckrWZOhSO4dUyLclmvnkAlCR29_H-Zbh2NeaxHijYUZt-2r8QwDwanC4Di8436M5pxMgrMTn4mk92oeubkK-O6wxOBHdIqlQLE6U9XOIxp4Nw2jQivEC-JL08Va7atH7IomfQm9gum7UahX52onnrEEVdBHw6JwYnGoDdnUpYQchw8O0o5dIKcXuVgJbuHk39XeMjgWXpt6v9sYy9j0LGoXLn1tbpucSu23tH0XrebdB3Z2VyNUyE-2hErOLEZ39rLBDDSj6wBQHfDtXaZXngfpZ2ShNoyTV2BIIcwRH1iH5E-pvuIutrMpAzhJra3N1swkdbagIz-VquEMRok3EeQ4EgzQhUHvhoLlRuv6AKfHOFYbEQhh9TA70KXHVKnrkFefbByAgPN2516mLLD7J5TV9mdOUMjoh8UHgZRi1SH5a7Y4GbKeh6V9kF23EGT1qozwRwTWVR-SYASX-xR30E3uzBrj-WAYKyaFRUEayRjNv3kbe6zi9PqAMgahKtEh82c2gAbMgREJNf4gSdQ2nqDq-P-QThY_cGbafKafUALvIOodYeD2IsHDgI_4k99V5nTan1TQSACxoOdDErMUv5_OyLADTaBHI6EEQ77LCx2ceUSTQP3qU5A3ddqKTGTCJdoRRvBV4i2wRj2qCuZjNVxzwABnnsiGCvlpCMAuEUauskXIYKgTx8O8fEIbvfud6aEJ4xKzl5FSjmGbRbY3yRvUmI-dANCC6p-meGxaS0nhizzK-U0zw6EQzcwGFueOKZjj7Xbhl68D5E4fAwGaQL1BzGr85zTPfCMlRGqVpNn7lkxrsWnuBwVNxuUM-qHwhjPhMHV_6U6xitJE5_0C0?></g></svg>